<svg width="56" height="56" viewBox="0 0 56 56" fill="none" xmlns="http://www.w3.org/2000/svg">
<circle cx="28" cy="28" r="28" fill="#A9C96B" fill-opacity="0.4"/>
<path d="M19 20.995C19 19.893 19.893 19 20.995 19H35.005C36.107 19 37 19.893 37 20.995V35.005C37 35.5341 36.7898 36.0415 36.4157 36.4157C36.0415 36.7898 35.5341 37 35.005 37H20.995C20.4659 37 19.9585 36.7898 19.5843 36.4157C19.2102 36.0415 19 35.5341 19 35.005V20.995ZM21 21V35H35V21H21ZM23.972 34.18C23.357 33.9136 22.7704 33.586 22.221 33.202C22.8553 32.219 23.726 31.4108 24.7534 30.8514C25.7808 30.292 26.9322 29.9993 28.102 30C30.502 30 32.619 31.207 33.88 33.047C33.3412 33.4456 32.7636 33.789 32.156 34.072C31.6929 33.43 31.0838 32.9073 30.3789 32.547C29.674 32.1868 28.8936 31.9993 28.102 32C26.387 32 24.872 32.864 23.972 34.18ZM28 29C27.5404 29 27.0852 28.9095 26.6606 28.7336C26.236 28.5577 25.8501 28.2999 25.5251 27.9749C25.2001 27.6499 24.9423 27.264 24.7664 26.8394C24.5905 26.4148 24.5 25.9596 24.5 25.5C24.5 25.0404 24.5905 24.5852 24.7664 24.1606C24.9423 23.736 25.2001 23.3501 25.5251 23.0251C25.8501 22.7001 26.236 22.4423 26.6606 22.2664C27.0852 22.0905 27.5404 22 28 22C28.9283 22 29.8185 22.3687 30.4749 23.0251C31.1313 23.6815 31.5 24.5717 31.5 25.5C31.5 26.4283 31.1313 27.3185 30.4749 27.9749C29.8185 28.6313 28.9283 29 28 29ZM28 27C28.3978 27 28.7794 26.842 29.0607 26.5607C29.342 26.2794 29.5 25.8978 29.5 25.5C29.5 25.1022 29.342 24.7206 29.0607 24.4393C28.7794 24.158 28.3978 24 28 24C27.6022 24 27.2206 24.158 26.9393 24.4393C26.658 24.7206 26.5 25.1022 26.5 25.5C26.5 25.8978 26.658 26.2794 26.9393 26.5607C27.2206 26.842 27.6022 27 28 27Z" fill="#65744D"/>
</svg>
