<svg width="56" height="56" viewBox="0 0 56 56" fill="none" xmlns="http://www.w3.org/2000/svg">
<circle cx="28" cy="28" r="28" fill="#A9C96B" fill-opacity="0.4"/>
<path d="M28 38C22.477 38 18 33.523 18 28C18 23.522 20.943 19.732 25 18.458V20.582C23.2809 21.28 21.8578 22.5537 20.9741 24.1851C20.0903 25.8165 19.8009 27.7043 20.1553 29.5255C20.5096 31.3468 21.4858 32.9883 22.9168 34.1693C24.3477 35.3503 26.1446 35.9975 28 36C29.5938 36 31.1513 35.524 32.4728 34.6332C33.7944 33.7424 34.82 32.4773 35.418 31H37.542C36.268 35.057 32.478 38 28 38ZM37.95 29H27V18.05C27.329 18.017 27.663 18 28 18C33.523 18 38 22.477 38 28C38 28.337 37.983 28.671 37.95 29ZM29 20.062V27H35.938C35.7154 25.2376 34.9129 23.5993 33.6568 22.3432C32.4007 21.0871 30.7624 20.2846 29 20.062Z" fill="#515D3D"/>
</svg>
