<svg width="60" height="60" viewBox="0 0 60 60" fill="none" xmlns="http://www.w3.org/2000/svg">
<path d="M21 21H39C39.2652 21 39.5196 21.1054 39.7071 21.2929C39.8946 21.4804 40 21.7348 40 22V38C40 38.2652 39.8946 38.5196 39.7071 38.7071C39.5196 38.8946 39.2652 39 39 39H21C20.7348 39 20.4804 38.8946 20.2929 38.7071C20.1054 38.5196 20 38.2652 20 38V22C20 21.7348 20.1054 21.4804 20.2929 21.2929C20.4804 21.1054 20.7348 21 21 21ZM38 29H22V37H38V29ZM38 27V23H22V27H38ZM32 33H36V35H32V33Z" fill="#515D3D"/>
<circle cx="30" cy="30" r="30" fill="#A9C96B" fill-opacity="0.4"/>
</svg>
