<svg width="56" height="56" viewBox="0 0 56 56" fill="none" xmlns="http://www.w3.org/2000/svg">
<circle cx="28" cy="28" r="28" fill="#A9C96B" fill-opacity="0.4"/>
<path d="M29 18C34.523 18 39 22.477 39 28C39 30.4 38.154 32.604 36.744 34.328L36.778 34.364L35.364 35.778L35.328 35.744C33.5436 37.2062 31.307 38.0036 29 38C23.477 38 19 33.523 19 28C19 22.477 23.477 18 29 18ZM21 28C21 29.4969 21.4199 30.9638 22.2122 32.2339C23.0044 33.5041 24.1371 34.5264 25.4814 35.1848C26.8258 35.8432 28.3279 36.1112 29.817 35.9583C31.3061 35.8054 32.7225 35.2378 33.905 34.32L31.53 31.944C31.3558 31.9814 31.1782 32.0002 31 32H30V34H28V32H25.5V30H31C31.1249 30.0002 31.2455 29.9537 31.3378 29.8695C31.4301 29.7853 31.4876 29.6696 31.4989 29.5452C31.5102 29.4207 31.4745 29.2966 31.3988 29.1972C31.3231 29.0977 31.2129 29.0303 31.09 29.008L31 29H27C26.5612 29 26.1301 28.8845 25.75 28.665C25.37 28.4456 25.0544 28.13 24.835 27.75C24.6156 27.3699 24.5001 26.9388 24.5001 26.5C24.5001 26.0611 24.6156 25.63 24.835 25.25L22.679 23.094C21.5878 24.4963 20.9968 26.2232 21 28ZM29 20C27.152 20 25.45 20.627 24.095 21.68L26.47 24.055C26.6442 24.0179 26.8219 23.9995 27 24H28V22H30V24H32.5V26H27C26.8751 25.9998 26.7545 26.0463 26.6622 26.1305C26.5699 26.2147 26.5124 26.3304 26.5011 26.4548C26.4898 26.5793 26.5255 26.7034 26.6012 26.8028C26.6769 26.9023 26.7871 26.9697 26.91 26.992L27 27H31C31.4388 27 31.8699 27.1155 32.25 27.335C32.63 27.5544 32.9456 27.87 33.165 28.25C33.3844 28.6301 33.4999 29.0612 33.4999 29.5C33.4999 29.9389 33.3844 30.37 33.165 30.75L35.321 32.905C36.2389 31.7224 36.8065 30.306 36.9593 28.8168C37.1121 27.3276 36.8441 25.8254 36.1856 24.481C35.5271 23.1366 34.5046 22.0039 33.2343 21.2118C31.964 20.4196 30.497 19.9998 29 20Z" fill="#65744D"/>
</svg>
