<svg width="448" height="768" viewBox="0 0 448 768" fill="none" xmlns="http://www.w3.org/2000/svg">
<circle cx="4" cy="4" r="4" fill="#A9C96B"/>
<circle cx="44" cy="4" r="4" fill="#A9C96B"/>
<circle cx="84" cy="4" r="4" fill="#A9C96B"/>
<circle cx="124" cy="4" r="4" fill="#A9C96B"/>
<circle cx="164" cy="4" r="4" fill="#A9C96B"/>
<circle cx="204" cy="4" r="4" fill="#A9C96B"/>
<circle cx="244" cy="4" r="4" fill="#A9C96B"/>
<circle cx="284" cy="4" r="4" fill="#A9C96B"/>
<circle cx="324" cy="4" r="4" fill="#A9C96B"/>
<circle cx="364" cy="4" r="4" fill="#A9C96B"/>
<circle cx="404" cy="4" r="4" fill="#A9C96B"/>
<circle cx="444" cy="4" r="4" fill="#A9C96B"/>
<circle cx="4" cy="44" r="4" fill="#A9C96B"/>
<circle cx="44" cy="44" r="4" fill="#A9C96B"/>
<circle cx="84" cy="44" r="4" fill="#A9C96B"/>
<circle cx="124" cy="44" r="4" fill="#A9C96B"/>
<circle cx="164" cy="44" r="4" fill="#A9C96B"/>
<circle cx="204" cy="44" r="4" fill="#A9C96B"/>
<circle cx="244" cy="44" r="4" fill="#A9C96B"/>
<circle cx="284" cy="44" r="4" fill="#A9C96B"/>
<circle cx="324" cy="44" r="4" fill="#A9C96B"/>
<circle cx="364" cy="44" r="4" fill="#A9C96B"/>
<circle cx="404" cy="44" r="4" fill="#A9C96B"/>
<circle cx="444" cy="44" r="4" fill="#A9C96B"/>
<circle cx="4" cy="84" r="4" fill="#A9C96B"/>
<circle cx="44" cy="84" r="4" fill="#A9C96B"/>
<circle cx="84" cy="84" r="4" fill="#A9C96B"/>
<circle cx="124" cy="84" r="4" fill="#A9C96B"/>
<circle cx="164" cy="84" r="4" fill="#A9C96B"/>
<circle cx="204" cy="84" r="4" fill="#A9C96B"/>
<circle cx="244" cy="84" r="4" fill="#A9C96B"/>
<circle cx="284" cy="84" r="4" fill="#A9C96B"/>
<circle cx="324" cy="84" r="4" fill="#A9C96B"/>
<circle cx="364" cy="84" r="4" fill="#A9C96B"/>
<circle cx="404" cy="84" r="4" fill="#A9C96B"/>
<circle cx="444" cy="84" r="4" fill="#A9C96B"/>
<circle cx="4" cy="124" r="4" fill="#A9C96B"/>
<circle cx="44" cy="124" r="4" fill="#A9C96B"/>
<circle cx="84" cy="124" r="4" fill="#A9C96B"/>
<circle cx="124" cy="124" r="4" fill="#A9C96B"/>
<circle cx="164" cy="124" r="4" fill="#A9C96B"/>
<circle cx="204" cy="124" r="4" fill="#A9C96B"/>
<circle cx="244" cy="124" r="4" fill="#A9C96B"/>
<circle cx="284" cy="124" r="4" fill="#A9C96B"/>
<circle cx="324" cy="124" r="4" fill="#A9C96B"/>
<circle cx="364" cy="124" r="4" fill="#A9C96B"/>
<circle cx="404" cy="124" r="4" fill="#A9C96B"/>
<circle cx="444" cy="124" r="4" fill="#A9C96B"/>
<circle cx="4" cy="164" r="4" fill="#A9C96B"/>
<circle cx="44" cy="164" r="4" fill="#A9C96B"/>
<circle cx="84" cy="164" r="4" fill="#A9C96B"/>
<circle cx="124" cy="164" r="4" fill="#A9C96B"/>
<circle cx="164" cy="164" r="4" fill="#A9C96B"/>
<circle cx="204" cy="164" r="4" fill="#A9C96B"/>
<circle cx="244" cy="164" r="4" fill="#A9C96B"/>
<circle cx="284" cy="164" r="4" fill="#A9C96B"/>
<circle cx="324" cy="164" r="4" fill="#A9C96B"/>
<circle cx="364" cy="164" r="4" fill="#A9C96B"/>
<circle cx="404" cy="164" r="4" fill="#A9C96B"/>
<circle cx="444" cy="164" r="4" fill="#A9C96B"/>
<circle cx="4" cy="324" r="4" fill="#A9C96B"/>
<circle cx="44" cy="324" r="4" fill="#A9C96B"/>
<circle cx="84" cy="324" r="4" fill="#A9C96B"/>
<circle cx="124" cy="324" r="4" fill="#A9C96B"/>
<circle cx="164" cy="324" r="4" fill="#A9C96B"/>
<circle cx="204" cy="324" r="4" fill="#A9C96B"/>
<circle cx="244" cy="324" r="4" fill="#A9C96B"/>
<circle cx="284" cy="324" r="4" fill="#A9C96B"/>
<circle cx="324" cy="324" r="4" fill="#A9C96B"/>
<circle cx="364" cy="324" r="4" fill="#A9C96B"/>
<circle cx="404" cy="324" r="4" fill="#A9C96B"/>
<circle cx="444" cy="324" r="4" fill="#A9C96B"/>
<circle cx="4" cy="364" r="4" fill="#A9C96B"/>
<circle cx="44" cy="364" r="4" fill="#A9C96B"/>
<circle cx="84" cy="364" r="4" fill="#A9C96B"/>
<circle cx="124" cy="364" r="4" fill="#A9C96B"/>
<circle cx="164" cy="364" r="4" fill="#A9C96B"/>
<circle cx="204" cy="364" r="4" fill="#A9C96B"/>
<circle cx="244" cy="364" r="4" fill="#A9C96B"/>
<circle cx="284" cy="364" r="4" fill="#A9C96B"/>
<circle cx="324" cy="364" r="4" fill="#A9C96B"/>
<circle cx="364" cy="364" r="4" fill="#A9C96B"/>
<circle cx="404" cy="364" r="4" fill="#A9C96B"/>
<circle cx="444" cy="364" r="4" fill="#A9C96B"/>
<circle cx="4" cy="404" r="4" fill="#A9C96B"/>
<circle cx="44" cy="404" r="4" fill="#A9C96B"/>
<circle cx="84" cy="404" r="4" fill="#A9C96B"/>
<circle cx="124" cy="404" r="4" fill="#A9C96B"/>
<circle cx="164" cy="404" r="4" fill="#A9C96B"/>
<circle cx="204" cy="404" r="4" fill="#A9C96B"/>
<circle cx="244" cy="404" r="4" fill="#A9C96B"/>
<circle cx="284" cy="404" r="4" fill="#A9C96B"/>
<circle cx="324" cy="404" r="4" fill="#A9C96B"/>
<circle cx="364" cy="404" r="4" fill="#A9C96B"/>
<circle cx="404" cy="404" r="4" fill="#A9C96B"/>
<circle cx="444" cy="404" r="4" fill="#A9C96B"/>
<circle cx="4" cy="444" r="4" fill="#A9C96B"/>
<circle cx="44" cy="444" r="4" fill="#A9C96B"/>
<circle cx="84" cy="444" r="4" fill="#A9C96B"/>
<circle cx="124" cy="444" r="4" fill="#A9C96B"/>
<circle cx="164" cy="444" r="4" fill="#A9C96B"/>
<circle cx="204" cy="444" r="4" fill="#A9C96B"/>
<circle cx="244" cy="444" r="4" fill="#A9C96B"/>
<circle cx="284" cy="444" r="4" fill="#A9C96B"/>
<circle cx="324" cy="444" r="4" fill="#A9C96B"/>
<circle cx="364" cy="444" r="4" fill="#A9C96B"/>
<circle cx="404" cy="444" r="4" fill="#A9C96B"/>
<circle cx="444" cy="444" r="4" fill="#A9C96B"/>
<circle cx="4" cy="484" r="4" fill="#A9C96B"/>
<circle cx="44" cy="484" r="4" fill="#A9C96B"/>
<circle cx="84" cy="484" r="4" fill="#A9C96B"/>
<circle cx="124" cy="484" r="4" fill="#A9C96B"/>
<circle cx="164" cy="484" r="4" fill="#A9C96B"/>
<circle cx="204" cy="484" r="4" fill="#A9C96B"/>
<circle cx="244" cy="484" r="4" fill="#A9C96B"/>
<circle cx="284" cy="484" r="4" fill="#A9C96B"/>
<circle cx="324" cy="484" r="4" fill="#A9C96B"/>
<circle cx="364" cy="484" r="4" fill="#A9C96B"/>
<circle cx="404" cy="484" r="4" fill="#A9C96B"/>
<circle cx="444" cy="484" r="4" fill="#A9C96B"/>
<circle cx="4" cy="204" r="4" fill="#A9C96B"/>
<circle cx="44" cy="204" r="4" fill="#A9C96B"/>
<circle cx="84" cy="204" r="4" fill="#A9C96B"/>
<circle cx="124" cy="204" r="4" fill="#A9C96B"/>
<circle cx="164" cy="204" r="4" fill="#A9C96B"/>
<circle cx="204" cy="204" r="4" fill="#A9C96B"/>
<circle cx="244" cy="204" r="4" fill="#A9C96B"/>
<circle cx="284" cy="204" r="4" fill="#A9C96B"/>
<circle cx="324" cy="204" r="4" fill="#A9C96B"/>
<circle cx="364" cy="204" r="4" fill="#A9C96B"/>
<circle cx="404" cy="204" r="4" fill="#A9C96B"/>
<circle cx="444" cy="204" r="4" fill="#A9C96B"/>
<circle cx="4" cy="244" r="4" fill="#A9C96B"/>
<circle cx="44" cy="244" r="4" fill="#A9C96B"/>
<circle cx="84" cy="244" r="4" fill="#A9C96B"/>
<circle cx="124" cy="244" r="4" fill="#A9C96B"/>
<circle cx="164" cy="244" r="4" fill="#A9C96B"/>
<circle cx="204" cy="244" r="4" fill="#A9C96B"/>
<circle cx="244" cy="244" r="4" fill="#A9C96B"/>
<circle cx="284" cy="244" r="4" fill="#A9C96B"/>
<circle cx="324" cy="244" r="4" fill="#A9C96B"/>
<circle cx="364" cy="244" r="4" fill="#A9C96B"/>
<circle cx="404" cy="244" r="4" fill="#A9C96B"/>
<circle cx="444" cy="244" r="4" fill="#A9C96B"/>
<circle cx="4" cy="284" r="4" fill="#A9C96B"/>
<circle cx="44" cy="284" r="4" fill="#A9C96B"/>
<circle cx="84" cy="284" r="4" fill="#A9C96B"/>
<circle cx="124" cy="284" r="4" fill="#A9C96B"/>
<circle cx="164" cy="284" r="4" fill="#A9C96B"/>
<circle cx="204" cy="284" r="4" fill="#A9C96B"/>
<circle cx="244" cy="284" r="4" fill="#A9C96B"/>
<circle cx="284" cy="284" r="4" fill="#A9C96B"/>
<circle cx="324" cy="284" r="4" fill="#A9C96B"/>
<circle cx="364" cy="284" r="4" fill="#A9C96B"/>
<circle cx="404" cy="284" r="4" fill="#A9C96B"/>
<circle cx="444" cy="284" r="4" fill="#A9C96B"/>
<circle cx="4" cy="604" r="4" fill="#A9C96B"/>
<circle cx="44" cy="604" r="4" fill="#A9C96B"/>
<circle cx="84" cy="604" r="4" fill="#A9C96B"/>
<circle cx="124" cy="604" r="4" fill="#A9C96B"/>
<circle cx="164" cy="604" r="4" fill="#A9C96B"/>
<circle cx="204" cy="604" r="4" fill="#A9C96B"/>
<circle cx="244" cy="604" r="4" fill="#A9C96B"/>
<circle cx="284" cy="604" r="4" fill="#A9C96B"/>
<circle cx="324" cy="604" r="4" fill="#A9C96B"/>
<circle cx="364" cy="604" r="4" fill="#A9C96B"/>
<circle cx="404" cy="604" r="4" fill="#A9C96B"/>
<circle cx="444" cy="604" r="4" fill="#A9C96B"/>
<circle cx="4" cy="524" r="4" fill="#A9C96B"/>
<circle cx="44" cy="524" r="4" fill="#A9C96B"/>
<circle cx="84" cy="524" r="4" fill="#A9C96B"/>
<circle cx="124" cy="524" r="4" fill="#A9C96B"/>
<circle cx="164" cy="524" r="4" fill="#A9C96B"/>
<circle cx="204" cy="524" r="4" fill="#A9C96B"/>
<circle cx="244" cy="524" r="4" fill="#A9C96B"/>
<circle cx="284" cy="524" r="4" fill="#A9C96B"/>
<circle cx="324" cy="524" r="4" fill="#A9C96B"/>
<circle cx="364" cy="524" r="4" fill="#A9C96B"/>
<circle cx="404" cy="524" r="4" fill="#A9C96B"/>
<circle cx="444" cy="524" r="4" fill="#A9C96B"/>
<circle cx="4" cy="564" r="4" fill="#A9C96B"/>
<circle cx="44" cy="564" r="4" fill="#A9C96B"/>
<circle cx="84" cy="564" r="4" fill="#A9C96B"/>
<circle cx="124" cy="564" r="4" fill="#A9C96B"/>
<circle cx="164" cy="564" r="4" fill="#A9C96B"/>
<circle cx="204" cy="564" r="4" fill="#A9C96B"/>
<circle cx="244" cy="564" r="4" fill="#A9C96B"/>
<circle cx="284" cy="564" r="4" fill="#A9C96B"/>
<circle cx="324" cy="564" r="4" fill="#A9C96B"/>
<circle cx="364" cy="564" r="4" fill="#A9C96B"/>
<circle cx="404" cy="564" r="4" fill="#A9C96B"/>
<circle cx="444" cy="564" r="4" fill="#A9C96B"/>
<circle cx="4" cy="644" r="4" fill="#A9C96B"/>
<circle cx="44" cy="644" r="4" fill="#A9C96B"/>
<circle cx="84" cy="644" r="4" fill="#A9C96B"/>
<circle cx="124" cy="644" r="4" fill="#A9C96B"/>
<circle cx="164" cy="644" r="4" fill="#A9C96B"/>
<circle cx="204" cy="644" r="4" fill="#A9C96B"/>
<circle cx="244" cy="644" r="4" fill="#A9C96B"/>
<circle cx="284" cy="644" r="4" fill="#A9C96B"/>
<circle cx="324" cy="644" r="4" fill="#A9C96B"/>
<circle cx="364" cy="644" r="4" fill="#A9C96B"/>
<circle cx="404" cy="644" r="4" fill="#A9C96B"/>
<circle cx="444" cy="644" r="4" fill="#A9C96B"/>
<circle cx="4" cy="764" r="4" fill="#A9C96B"/>
<circle cx="44" cy="764" r="4" fill="#A9C96B"/>
<circle cx="84" cy="764" r="4" fill="#A9C96B"/>
<circle cx="124" cy="764" r="4" fill="#A9C96B"/>
<circle cx="164" cy="764" r="4" fill="#A9C96B"/>
<circle cx="204" cy="764" r="4" fill="#A9C96B"/>
<circle cx="244" cy="764" r="4" fill="#A9C96B"/>
<circle cx="284" cy="764" r="4" fill="#A9C96B"/>
<circle cx="324" cy="764" r="4" fill="#A9C96B"/>
<circle cx="364" cy="764" r="4" fill="#A9C96B"/>
<circle cx="404" cy="764" r="4" fill="#A9C96B"/>
<circle cx="444" cy="764" r="4" fill="#A9C96B"/>
<circle cx="4" cy="684" r="4" fill="#A9C96B"/>
<circle cx="44" cy="684" r="4" fill="#A9C96B"/>
<circle cx="84" cy="684" r="4" fill="#A9C96B"/>
<circle cx="124" cy="684" r="4" fill="#A9C96B"/>
<circle cx="164" cy="684" r="4" fill="#A9C96B"/>
<circle cx="204" cy="684" r="4" fill="#A9C96B"/>
<circle cx="244" cy="684" r="4" fill="#A9C96B"/>
<circle cx="284" cy="684" r="4" fill="#A9C96B"/>
<circle cx="324" cy="684" r="4" fill="#A9C96B"/>
<circle cx="364" cy="684" r="4" fill="#A9C96B"/>
<circle cx="404" cy="684" r="4" fill="#A9C96B"/>
<circle cx="444" cy="684" r="4" fill="#A9C96B"/>
<circle cx="4" cy="724" r="4" fill="#A9C96B"/>
<circle cx="44" cy="724" r="4" fill="#A9C96B"/>
<circle cx="84" cy="724" r="4" fill="#A9C96B"/>
<circle cx="124" cy="724" r="4" fill="#A9C96B"/>
<circle cx="164" cy="724" r="4" fill="#A9C96B"/>
<circle cx="204" cy="724" r="4" fill="#A9C96B"/>
<circle cx="244" cy="724" r="4" fill="#A9C96B"/>
<circle cx="284" cy="724" r="4" fill="#A9C96B"/>
<circle cx="324" cy="724" r="4" fill="#A9C96B"/>
<circle cx="364" cy="724" r="4" fill="#A9C96B"/>
<circle cx="404" cy="724" r="4" fill="#A9C96B"/>
<circle cx="444" cy="724" r="4" fill="#A9C96B"/>
</svg>
